<?xml version="1.0" encoding="UTF-8" standalone="no"?>
<!DOCTYPE svg PUBLIC "-//W3C//DTD SVG 1.1//EN" "http://www.w3.org/Graphics/SVG/1.1/DTD/svg11.dtd">
<svg width="1685px" height="470px" version="1.1" xmlns="http://www.w3.org/2000/svg" xmlns:xlink="http://www.w3.org/1999/xlink" xml:space="preserve" xmlns:serif="http://www.serif.com/" style="fill-rule:evenodd;clip-rule:evenodd;stroke-linejoin:round;stroke-miterlimit:2;">
    <g transform="matrix(1,0,0,1,-5828.72,-372.027)">
        <g transform="matrix(1,0,0,1,-5595.03,1.7053e-13)">
            <g transform="matrix(1,0,0,1,31.0669,40.5567)">
                <g transform="matrix(0.677582,0,0,0.677582,7437.94,397.064)">
                    <rect x="5849.05" y="184.12" width="461.715" height="399.061" style="fill:rgb(0,151,46);"/>
                    <path d="M6323.27,184.12L6323.27,583.181C6323.27,590.085 6317.67,595.681 6310.77,595.681L5849.05,595.681C5842.15,595.681 5836.55,590.085 5836.55,583.181L5836.55,184.12C5836.55,177.216 5842.15,171.62 5849.05,171.62L6310.77,171.62C6317.67,171.62 6323.27,177.216 6323.27,184.12ZM6310.77,184.12L5849.05,184.12L5849.05,583.181L6310.77,583.181L6310.77,184.12Z" style="fill:rgb(0,115,55);"/>
                </g>
                <g transform="matrix(4.16667,0,0,4.16667,11503.2,631.606)">
                    <g>
                        <g transform="matrix(16,0,0,16,18.272,11)">
                        </g>
                        <text x="2px" y="11px" style="font-family:'MMCenturyNew-BoldItalic', 'MMCenturyNew';font-weight:700;font-style:italic;font-size:16px;fill:rgb(13,255,53);">W</text>
                    </g>
                </g>
            </g>
            <g transform="matrix(1,0,0,1,25.3377,98.7592)">
                <g transform="matrix(2.81433,0,0,1,-7976.84,-58.2025)">
                    <path d="M7354.72,521.821L7403.64,521.821" style="fill:none;"/>
                    <path d="M7354.72,525.987C7353.9,525.987 7353.24,524.12 7353.24,521.821C7353.24,519.521 7353.9,517.654 7354.72,517.654L7356.25,517.654C7357.07,517.654 7357.73,519.521 7357.73,521.821C7357.73,524.12 7357.07,525.987 7356.25,525.987L7354.72,525.987ZM7365.42,525.987C7364.61,525.987 7363.94,524.12 7363.94,521.821C7363.94,519.521 7364.61,517.654 7365.42,517.654L7368.48,517.654C7369.3,517.654 7369.96,519.521 7369.96,521.821C7369.96,524.12 7369.3,525.987 7368.48,525.987L7365.42,525.987ZM7377.65,525.987C7376.84,525.987 7376.17,524.12 7376.17,521.821C7376.17,519.521 7376.84,517.654 7377.65,517.654L7380.71,517.654C7381.53,517.654 7382.19,519.521 7382.19,521.821C7382.19,524.12 7381.53,525.987 7380.71,525.987L7377.65,525.987ZM7389.88,525.987C7389.07,525.987 7388.4,524.12 7388.4,521.821C7388.4,519.521 7389.07,517.654 7389.88,517.654L7392.94,517.654C7393.76,517.654 7394.42,519.521 7394.42,521.821C7394.42,524.12 7393.76,525.987 7392.94,525.987L7389.88,525.987ZM7402.11,525.987C7401.3,525.987 7400.63,524.12 7400.63,521.821C7400.63,519.521 7401.3,517.654 7402.11,517.654L7403.64,517.654C7404.46,517.654 7405.12,519.521 7405.12,521.821C7405.12,524.12 7404.46,525.987 7403.64,525.987L7402.11,525.987Z" style="fill:rgb(14,255,53);fill-opacity:0.49;"/>
                </g>
                <g transform="matrix(-1.0463e-14,1.74659,-1,-2.58543e-15,13332.2,-12467.5)">
                    <path d="M7354.72,521.821L7403.64,521.821" style="fill:none;"/>
                    <path d="M7354.72,525.987C7353.4,525.987 7352.34,524.12 7352.34,521.821C7352.34,519.521 7353.4,517.654 7354.72,517.654L7357.44,517.654C7358.76,517.654 7359.82,519.521 7359.82,521.821C7359.82,524.12 7358.76,525.987 7357.44,525.987L7354.72,525.987ZM7368.31,525.987C7366.99,525.987 7365.93,524.12 7365.93,521.821C7365.93,519.521 7366.99,517.654 7368.31,517.654L7373.75,517.654C7375.06,517.654 7376.13,519.521 7376.13,521.821C7376.13,524.12 7375.06,525.987 7373.75,525.987L7368.31,525.987ZM7384.62,525.987C7383.3,525.987 7382.23,524.12 7382.23,521.821C7382.23,519.521 7383.3,517.654 7384.62,517.654L7390.05,517.654C7391.37,517.654 7392.44,519.521 7392.44,521.821C7392.44,524.12 7391.37,525.987 7390.05,525.987L7384.62,525.987ZM7400.92,525.987C7399.61,525.987 7398.54,524.12 7398.54,521.821C7398.54,519.521 7399.61,517.654 7400.92,517.654L7403.64,517.654C7404.96,517.654 7406.03,519.521 7406.03,521.821C7406.03,524.12 7404.96,525.987 7403.64,525.987L7400.92,525.987Z" style="fill:rgb(14,255,53);fill-opacity:0.49;"/>
                </g>
                <g transform="matrix(-1.0463e-14,1.74659,-1,-2.58543e-15,13596.2,-12467.5)">
                    <path d="M7354.72,521.821L7403.64,521.821" style="fill:none;"/>
                    <path d="M7354.72,525.987C7353.4,525.987 7352.34,524.12 7352.34,521.821C7352.34,519.521 7353.4,517.654 7354.72,517.654L7357.44,517.654C7358.76,517.654 7359.82,519.521 7359.82,521.821C7359.82,524.12 7358.76,525.987 7357.44,525.987L7354.72,525.987ZM7368.31,525.987C7366.99,525.987 7365.93,524.12 7365.93,521.821C7365.93,519.521 7366.99,517.654 7368.31,517.654L7373.75,517.654C7375.06,517.654 7376.13,519.521 7376.13,521.821C7376.13,524.12 7375.06,525.987 7373.75,525.987L7368.31,525.987ZM7384.62,525.987C7383.3,525.987 7382.23,524.12 7382.23,521.821C7382.23,519.521 7383.3,517.654 7384.62,517.654L7390.05,517.654C7391.37,517.654 7392.44,519.521 7392.44,521.821C7392.44,524.12 7391.37,525.987 7390.05,525.987L7384.62,525.987ZM7400.92,525.987C7399.61,525.987 7398.54,524.12 7398.54,521.821C7398.54,519.521 7399.61,517.654 7400.92,517.654L7403.64,517.654C7404.96,517.654 7406.03,519.521 7406.03,521.821C7406.03,524.12 7404.96,525.987 7403.64,525.987L7400.92,525.987Z" style="fill:rgb(14,255,53);fill-opacity:0.49;"/>
                </g>
                <g transform="matrix(2.81433,0,0,1,-7976.84,212.194)">
                    <path d="M7354.72,521.821L7403.64,521.821" style="fill:none;"/>
                    <path d="M7354.72,525.987C7353.9,525.987 7353.24,524.12 7353.24,521.821C7353.24,519.521 7353.9,517.654 7354.72,517.654L7356.25,517.654C7357.07,517.654 7357.73,519.521 7357.73,521.821C7357.73,524.12 7357.07,525.987 7356.25,525.987L7354.72,525.987ZM7365.42,525.987C7364.61,525.987 7363.94,524.12 7363.94,521.821C7363.94,519.521 7364.61,517.654 7365.42,517.654L7368.48,517.654C7369.3,517.654 7369.96,519.521 7369.96,521.821C7369.96,524.12 7369.3,525.987 7368.48,525.987L7365.42,525.987ZM7377.65,525.987C7376.84,525.987 7376.17,524.12 7376.17,521.821C7376.17,519.521 7376.84,517.654 7377.65,517.654L7380.71,517.654C7381.53,517.654 7382.19,519.521 7382.19,521.821C7382.19,524.12 7381.53,525.987 7380.71,525.987L7377.65,525.987ZM7389.88,525.987C7389.07,525.987 7388.4,524.12 7388.4,521.821C7388.4,519.521 7389.07,517.654 7389.88,517.654L7392.94,517.654C7393.76,517.654 7394.42,519.521 7394.42,521.821C7394.42,524.12 7393.76,525.987 7392.94,525.987L7389.88,525.987ZM7402.11,525.987C7401.3,525.987 7400.63,524.12 7400.63,521.821C7400.63,519.521 7401.3,517.654 7402.11,517.654L7403.64,517.654C7404.46,517.654 7405.12,519.521 7405.12,521.821C7405.12,524.12 7404.46,525.987 7403.64,525.987L7402.11,525.987Z" style="fill:rgb(14,255,53);fill-opacity:0.49;"/>
                </g>
                <g transform="matrix(1,0,0,1.02476,-2.01806,-27.2174)">
                    <g transform="matrix(0.213143,0,0,0.661209,11378.7,357.233)">
                        <rect x="5849.05" y="184.12" width="461.715" height="399.061" style="fill:rgb(0,151,46);"/>
                        <path d="M6340.22,184.12L6340.22,583.181C6340.22,588.299 6327.03,592.447 6310.77,592.447L5849.05,592.447C5832.78,592.447 5819.6,588.299 5819.6,583.181L5819.6,184.12C5819.6,179.002 5832.78,174.854 5849.05,174.854L6310.77,174.854C6327.03,174.854 6340.22,179.002 6340.22,184.12ZM6310.77,184.12L5849.05,184.12L5849.05,583.181L6310.77,583.181L6310.77,184.12Z" style="fill:rgb(0,115,55);"/>
                    </g>
                    <g transform="matrix(1,0,0,1,5400.06,-7.35426)">
                        <g transform="matrix(1.02476,0,0,1,-179.771,0)">
                            <g transform="matrix(50.7221,0,0,50.7221,7293.29,634.618)">
                            </g>
                            <text x="7259.81px" y="634.618px" style="font-family:'MMCenturyNew-BoldItalic', 'MMCenturyNew';font-weight:700;font-style:italic;font-size:50.722px;fill:rgb(13,255,53);">A</text>
                        </g>
                    </g>
                    <g transform="matrix(0.472441,0,-3.19495e-20,0.472441,12649,503.573)">
                        <g transform="matrix(1,0,0,1,-50,-50)">
                            <g transform="matrix(4.16667,0,0,4.16667,0,0)">
                                <path d="M17.66,11.2C17.43,10.9 17.15,10.64 16.89,10.38C16.22,9.78 15.46,9.35 14.82,8.72C13.33,7.26 13,4.85 13.95,3C13,3.23 12.17,3.75 11.46,4.32C8.87,6.4 7.85,10.07 9.07,13.22C9.11,13.32 9.15,13.42 9.15,13.55C9.15,13.77 9,13.97 8.8,14.05C8.57,14.15 8.33,14.09 8.14,13.93C8.08,13.88 8.04,13.83 8,13.76C6.87,12.33 6.69,10.28 7.45,8.64C5.78,10 4.87,12.3 5,14.47C5.06,14.97 5.12,15.47 5.29,15.97C5.43,16.57 5.7,17.17 6,17.7C7.08,19.43 8.95,20.67 10.96,20.92C13.1,21.19 15.39,20.8 17.03,19.32C18.86,17.66 19.5,15 18.56,12.72L18.43,12.46C18.22,12 17.66,11.2 17.66,11.2M14.5,17.5C14.22,17.74 13.76,18 13.4,18.1C12.28,18.5 11.16,17.94 10.5,17.28C11.69,17 12.4,16.12 12.61,15.23C12.78,14.43 12.46,13.77 12.33,13C12.21,12.26 12.23,11.63 12.5,10.94C12.69,11.32 12.89,11.7 13.13,12C13.9,13 15.11,13.44 15.37,14.8C15.41,14.94 15.43,15.08 15.43,15.23C15.46,16.05 15.1,16.95 14.5,17.5Z" style="fill:rgb(255,0,0);fill-rule:nonzero;"/>
                            </g>
                        </g>
                    </g>
                </g>
                <g transform="matrix(0.571765,0,0,0.677582,9466.15,338.862)">
                    <rect x="5849.05" y="184.12" width="461.715" height="399.061" style="fill:rgb(0,151,46);"/>
                    <path d="M6324.47,184.12L6324.47,583.181C6324.47,589.568 6318.34,594.746 6310.77,594.746L5849.05,594.746C5841.48,594.746 5835.35,589.568 5835.35,583.181L5835.35,184.12C5835.35,177.733 5841.48,172.555 5849.05,172.555L6310.77,172.555C6318.34,172.555 6324.47,177.733 6324.47,184.12ZM6310.77,184.12L5849.05,184.12L5849.05,583.181L6310.77,583.181L6310.77,184.12Z" style="fill:rgb(0,115,55);"/>
                </g>
                <g transform="matrix(4.33151,0,0,4.33151,12823.4,570.48)">
                    <g>
                        <g>
                            <text x="2px" y="11px" style="font-family:'MMCenturyOldGreek';font-size:12px;fill:rgb(13,255,53);">D</text>
                            <text x="10.333px" y="11px" style="font-family:'MMCenturyNew-BoldItalic', 'MMCenturyNew';font-weight:700;font-style:italic;font-size:12px;fill:rgb(13,255,53);">W</text>
                            <text x="25.756px" y="11px" style="font-family:'MMCenturyNew-Regular', 'MMCenturyNew';font-size:12px;fill:rgb(13,255,53);">=</text>
                            <g transform="matrix(12,0,0,12,52.9921,11)">
                            </g>
                            <text x="36.774px" y="11px" style="font-family:'MMCenturyNew-BoldItalic', 'MMCenturyNew';font-weight:700;font-style:italic;font-size:12px;fill:rgb(13,255,53);">BA</text>
                        </g>
                    </g>
                </g>
                <g transform="matrix(1,0,0,1,29.7393,-94.2656)">
                    <g transform="matrix(0.000280933,-0.213143,0.661208,0.000871503,12657.3,1718.62)">
                        <rect x="5849.05" y="184.12" width="461.715" height="399.061" style="fill:rgb(0,151,46);"/>
                        <g transform="matrix(0.00618384,1.51238,-4.80785,0.00204275,9001.45,-10619.4)">
                            <g transform="matrix(1.02476,0,0,1,-179.771,0)">
                                <g transform="matrix(50.7221,0,0,50.7221,7294.81,634.618)">
                                </g>
                                <text x="7259.81px" y="634.618px" style="font-family:'MMCenturyNew-BoldItalic', 'MMCenturyNew';font-weight:700;font-style:italic;font-size:50.722px;fill:rgb(13,255,53);">B</text>
                            </g>
                        </g>
                        <path d="M6339.57,184.12L6339.57,583.181C6339.57,588.31 6326.68,592.468 6310.77,592.468L5849.05,592.468C5833.14,592.468 5820.24,588.31 5820.24,583.181L5820.24,184.12C5820.24,178.991 5833.14,174.833 5849.05,174.833L6310.77,174.833C6326.68,174.833 6339.57,178.991 6339.57,184.12ZM6310.77,184.12L5849.05,184.12L5849.05,583.181L6310.77,583.181L6310.77,184.12Z" style="fill:rgb(0,115,55);"/>
                    </g>
                    <g transform="matrix(0.472441,0,-3.19495e-20,0.472441,12804.3,398.304)">
                        <g transform="matrix(1,0,0,1,-50,-50)">
                            <g transform="matrix(4.16667,0,0,4.16667,0,0)">
                                <path d="M17.66,11.2C17.43,10.9 17.15,10.64 16.89,10.38C16.22,9.78 15.46,9.35 14.82,8.72C13.33,7.26 13,4.85 13.95,3C13,3.23 12.17,3.75 11.46,4.32C8.87,6.4 7.85,10.07 9.07,13.22C9.11,13.32 9.15,13.42 9.15,13.55C9.15,13.77 9,13.97 8.8,14.05C8.57,14.15 8.33,14.09 8.14,13.93C8.08,13.88 8.04,13.83 8,13.76C6.87,12.33 6.69,10.28 7.45,8.64C5.78,10 4.87,12.3 5,14.47C5.06,14.97 5.12,15.47 5.29,15.97C5.43,16.57 5.7,17.17 6,17.7C7.08,19.43 8.95,20.67 10.96,20.92C13.1,21.19 15.39,20.8 17.03,19.32C18.86,17.66 19.5,15 18.56,12.72L18.43,12.46C18.22,12 17.66,11.2 17.66,11.2M14.5,17.5C14.22,17.74 13.76,18 13.4,18.1C12.28,18.5 11.16,17.94 10.5,17.28C11.69,17 12.4,16.12 12.61,15.23C12.78,14.43 12.46,13.77 12.33,13C12.21,12.26 12.23,11.63 12.5,10.94C12.69,11.32 12.89,11.7 13.13,12C13.9,13 15.11,13.44 15.37,14.8C15.41,14.94 15.43,15.08 15.43,15.23C15.46,16.05 15.1,16.95 14.5,17.5Z" style="fill:rgb(255,0,0);fill-rule:nonzero;"/>
                            </g>
                        </g>
                    </g>
                </g>
            </g>
            <g transform="matrix(1,0,0,1,15.4676,40.5567)">
                <g transform="matrix(0.62598,0,0,0.677582,8351.97,397.064)">
                    <rect x="5849.05" y="184.12" width="461.715" height="399.061" style="fill:rgb(0,151,151);fill-opacity:0.53;"/>
                    <path d="M6323.79,184.12L6323.79,583.181C6323.79,589.827 6317.96,595.215 6310.77,595.215L5849.05,595.215C5841.86,595.215 5836.03,589.827 5836.03,583.181L5836.03,184.12C5836.03,177.474 5841.86,172.086 5849.05,172.086L6310.77,172.086C6317.96,172.086 6323.79,177.474 6323.79,184.12ZM6310.77,184.12L5849.05,184.12L5849.05,583.181L6310.77,583.181L6310.77,184.12Z" style="fill:rgb(0,145,255);"/>
                </g>
                <g transform="matrix(2.03091,-8.09634e-05,-9.21773e-05,1.88976,12018.3,526.042)">
                    <path d="M20.79,13.95L18.46,14.57L16.46,13.44L16.46,10.56L18.46,9.43L20.79,10.05L21.31,8.12L19.54,7.65L20,5.88L18.07,5.36L17.45,7.69L15.45,8.82L13,7.38L13,5.12L14.71,3.41L13.29,2L12,3.29L10.71,2L9.29,3.41L11,5.12L11,7.38L8.5,8.82L6.5,7.69L5.92,5.36L4,5.88L4.47,7.65L2.7,8.12L3.22,10.05L5.55,9.43L7.55,10.56L7.55,13.45L5.55,14.58L3.22,13.96L2.7,15.89L4.47,16.36L4,18.12L5.93,18.64L6.55,16.31L8.55,15.18L11,16.62L11,18.88L9.29,20.59L10.71,22L12,20.71L13.29,22L14.7,20.59L13,18.88L13,16.62L15.5,15.17L17.5,16.3L18.12,18.63L20,18.12L19.53,16.35L21.3,15.88L20.79,13.95M9.5,10.56L12,9.11L14.5,10.56L14.5,13.44L12,14.89L9.5,13.44L9.5,10.56Z" style="fill:white;fill-rule:nonzero;"/>
                </g>
                <g transform="matrix(4.16667,0,0,4.16667,12103.5,631.606)">
                    <g>
                        <g>
                            <text x="2px" y="11px" style="font-family:'MMCenturyNew-BoldItalic', 'MMCenturyNew';font-weight:700;font-style:italic;font-size:16px;fill:rgb(0,145,255);">W</text>
                            <text x="19.333px" y="12px" style="font-family:'MMCenturyNew-Bold', 'MMCenturyNew';font-weight:700;font-size:9px;fill:rgb(0,145,255);">0</text>
                        </g>
                    </g>
                </g>
            </g>
            <g transform="matrix(0.888889,0,0,0.857399,1332.11,111.621)">
                <g transform="matrix(0.815129,0,0,0.747674,6630.25,150.786)">
                    <rect x="6367.79" y="624.58" width="130.408" height="47.391" style="fill-opacity:0.75;"/>
                    <path d="M6510,624.58L6510,671.972C6510,679.339 6504.72,685.311 6498.2,685.311L6367.79,685.311C6361.27,685.311 6355.99,679.339 6355.99,671.972L6355.99,624.58C6355.99,617.214 6361.27,611.241 6367.79,611.241L6498.2,611.241C6504.72,611.241 6510,617.214 6510,624.58ZM6498.2,624.58L6367.79,624.58L6367.79,671.972L6498.2,671.972L6498.2,624.58Z"/>
                </g>
                <g transform="matrix(0.815129,0,0,0.747674,6630.25,246.635)">
                    <rect x="6367.79" y="624.58" width="130.408" height="47.391" style="fill-opacity:0.75;"/>
                    <path d="M6510,624.58L6510,671.972C6510,679.339 6504.72,685.311 6498.2,685.311L6367.79,685.311C6361.27,685.311 6355.99,679.339 6355.99,671.972L6355.99,624.58C6355.99,617.214 6361.27,611.241 6367.79,611.241L6498.2,611.241C6504.72,611.241 6510,617.214 6510,624.58ZM6498.2,624.58L6367.79,624.58L6367.79,671.972L6498.2,671.972L6498.2,624.58Z"/>
                </g>
            </g>
            <g transform="matrix(6.67869e-17,1.08684,-0.747674,4.51028e-17,12968,-6294.06)">
                <g>
                    <path d="M6498.2,624.58L6498.2,671.972L6449.3,672.274L6449.3,743.058L6416.69,743.058L6416.69,673.072L6367.79,671.972L6367.79,624.58L6416.69,623.993L6416.69,553.494L6449.3,553.494L6449.3,624.58L6498.2,624.58Z" style="fill-opacity:0.75;"/>
                    <path d="M6508.93,624.58L6508.93,671.972C6508.93,680.559 6504.15,687.53 6498.24,687.567L6460.03,687.803L6460.03,743.058C6460.03,751.671 6455.22,758.653 6449.3,758.653L6416.69,758.653C6410.77,758.653 6405.97,751.671 6405.97,743.058L6405.97,688.428L6367.62,687.565C6361.77,687.433 6357.06,680.49 6357.06,671.972L6357.06,624.58C6357.06,616.018 6361.81,609.057 6367.7,608.986L6405.97,608.526L6405.97,553.494C6405.97,544.881 6410.77,537.899 6416.69,537.899L6449.3,537.899C6455.22,537.899 6460.03,544.881 6460.03,553.494L6460.03,608.985L6498.2,608.985C6504.12,608.985 6508.93,615.968 6508.93,624.58ZM6498.2,624.58L6449.3,624.58L6449.3,553.494L6416.69,553.494L6416.69,623.993L6367.79,624.58L6367.79,671.972L6416.69,673.072L6416.69,743.058L6449.3,743.058L6449.3,672.274L6498.2,671.972L6498.2,624.58Z"/>
                </g>
            </g>
        </g>
    </g>
</svg>
